# xmcd
#
# Track frame offsets: 
#        150
#        24429
#        38297
#        57527
#        77109
#        96177
#        115657
#        134008
#        157212
#        176689
#        192161
#
# Disc length: 2746 seconds
#
# Revision: 1
# Processed by: cddbd v1.5.2PL0 Copyright (c) Steve Scherf et al.
# Submitted via: ExactAudioCopy v1.3
#
DISCID=8f0ab80b
DTITLE=Bethany Dillon - Stop and Listen
DYEAR=2009
DGENRE=Christian Pop
TTITLE0=Get Up And Walk
TTITLE1=Everyone To Know
TTITLE2=I Am Yours
TTITLE3=Stop and Listen
TTITLE4=Say Your Name
TTITLE5=So Close
TTITLE6=Reach Out
TTITLE7=Deliver Me
TTITLE8=The Way I Come To You
TTITLE9=In The Beginning
TTITLE10=Everyone To Know (Acoustic Version Feat. Shane Barnard)
EXTD=
EXTT0=
EXTT1=
EXTT2=
EXTT3=
EXTT4=
EXTT5=
EXTT6=
EXTT7=
EXTT8=
EXTT9=
EXTT10=
PLAYORDER=
